name jw_ngait_og1_new_v4_converted.mot
datacolumns 60
datarows 7
range 0.94830000 0.99830000
endheader
time	pelvis_rz	pelvis_rx	pelvis_ry	pelvis_tx	pelvis_ty	pelvis_tz	hip_flexion	hip_adduction	hip_rotation	knee_flexion	knee_adduction	knee_rotation	knee_tx	knee_ty	knee_tz	patfem_adduction	patfem_rotation	patfem_flexion	patfem_tx	patfem_ty	patfem_tz	ankle_angle	subtalar_angle	mtp_angle	hip_flexion_l	hip_adduction_l	hip_rotation_l	knee_flexion_l	knee_adduction_l	knee_rotation_l	knee_tx_l	knee_ty_l	knee_tz_l	patfem_adduction_l	patfem_rotation_l	patfem_flexion_l	patfem_tx_l	patfem_ty_l	patfem_tz_l	ankle_angle_l	subtalar_angle_l	mtp_angle_l	lumbar_extension	lumbar_bending	lumbar_rotation	arm_flex_r	arm_add_r	arm_rot_r	elbow_flex_r	pro_sup_r	wrist_flex_r	wrist_dev_r	arm_flex_l	arm_add_l	arm_rot_l	elbow_flex_l	pro_sup_l	wrist_flex_l	wrist_dev_l	
          0.94830000	          8.15266151	         -2.33923678	          1.45114479	         -1.75874749	          0.99602616	          0.17315715	        -17.60957283	          7.08871141	         -7.11207308	          5.60572620	         -0.00000000	          0.00000000	          0.00000000	          0.04199999	          0.00000000	         -0.00000000	          0.00005428	         95.56010003	          0.00000000	          0.03999883	          0.00000000	          6.34184433	         -8.63710778	          0.00000000	         22.63501162	         -3.55854922	         -0.69776515	        -33.26242300	          0.00000189	          0.00000000	         -0.00000000	          0.04190696	          0.00000000	         -0.00000000	          0.00005428	         56.69195084	          0.00000000	         -0.00000000	          0.00000000	          9.84837603	         -6.66955636	          0.00000000	        -29.71079749	          3.61313469	          4.12290320	         20.29045882	        -28.53978509	         86.71325055	         27.96456256	         89.99827303	          0.00000000	          0.00000000	         14.82890432	        -18.07875351	         72.99636965	         22.63133153	         89.99827303	          0.00000000	          0.00000000	
          0.95670000	          8.20635977	         -2.44966914	          1.25883000	         -1.74860882	          0.99479852	          0.17219688	        -18.44340124	          7.09995953	         -6.93669394	          5.78157243	         -0.00000000	          0.00000000	          0.00000000	          0.04199999	          0.00000000	         -0.00000000	          0.00005428	         95.73594626	          0.00000000	          0.03999883	          0.00000000	          6.70332102	         -8.73518631	          0.00000000	         22.12188370	         -3.53254339	         -0.78251294	        -29.40906922	          0.00000189	          0.00000000	         -0.00000000	          0.04190696	          0.00000000	         -0.00000000	          0.00005428	         60.54530461	          0.00000000	         -0.00000000	          0.00000000	          9.77554979	         -6.30216221	          0.00000000	        -29.88708285	          3.76806193	          4.12868669	         20.75138478	        -28.81526682	         87.00710273	         28.25704935	         89.99827303	          0.00000000	          0.00000000	         14.44071798	        -17.81537787	         73.43980678	         22.31028860	         89.99827303	          0.00000000	          0.00000000	
          0.96500000	          8.18876875	         -2.52739870	          1.23917046	         -1.73808085	          0.99330754	          0.17200195	        -19.19207244	          7.18137264	         -6.96575518	          5.88571520	         -0.00000000	          0.00000000	          0.00000000	          0.04199999	          0.00000000	         -0.00000000	          0.00005428	         95.84008904	          0.00000000	          0.03999883	          0.00000000	          7.04938664	         -8.68917514	          0.00000000	         21.67004326	         -3.52552699	         -0.91337625	        -25.56425406	          0.00000189	          0.00000000	         -0.00000000	          0.04190696	          0.00000000	         -0.00000000	          0.00005428	         64.39011977	          0.00000000	         -0.00000000	          0.00000000	          9.45107897	         -5.76966707	          0.00000000	        -29.94792684	          3.83045982	          4.12256979	         20.99099867	        -28.95341811	         86.91870787	         28.54109870	         89.99827303	          0.00000000	          0.00000000	         14.08693883	        -17.76732785	         73.79279652	         22.14458772	         89.99827303	          0.00000000	          0.00000000	
          0.97330000	          7.96196383	         -2.51344139	          1.29804959	         -1.72697694	          0.99125822	          0.17178386	        -19.79653295	          7.19861400	         -6.98550273	          6.09286546	         -0.00000000	          0.00000000	          0.00000000	          0.04199999	          0.00000000	         -0.00000000	          0.00005428	         96.04723929	          0.00000000	          0.03999883	          0.00000000	          7.46929856	         -8.75558107	          0.00000000	         21.57219623	         -3.37983139	         -0.90596934	        -22.10665779	          0.00000189	          0.00000000	         -0.00000000	          0.04190696	          0.00000000	         -0.00000000	          0.00005428	         67.84771605	          0.00000000	         -0.00000000	          0.00000000	          9.41851785	         -5.21196128	          0.00000000	        -29.63523846	          3.79116140	          3.91416671	         21.06501002	        -29.01714235	         86.87516279	         28.81796752	         89.99827303	          0.00000000	          0.00000000	         13.55987273	        -17.80102332	         74.06315083	         22.04549906	         89.99827303	          0.00000000	          0.00000000	
          0.98170000	          8.13686565	         -2.67649607	          1.33103951	         -1.71629378	          0.98988463	          0.17117638	        -20.76621755	          7.36441491	         -7.18649509	          6.22248722	         -0.00000000	          0.00000000	          0.00000000	          0.04199999	          0.00000000	         -0.00000000	          0.00005428	         96.17686106	          0.00000000	          0.03999883	          0.00000000	          7.73871800	         -8.47895859	          0.00000000	         20.81080014	         -3.45241390	         -1.10163068	        -18.25687909	          0.00000189	          0.00000000	         -0.00000000	          0.04190696	          0.00000000	         -0.00000000	          0.00005428	         71.69749474	          0.00000000	         -0.00000000	          0.00000000	          8.87960045	         -4.71882108	          0.00000000	        -29.92235031	          4.00467736	          3.91968002	         21.30759837	        -29.19120519	         86.87296542	         28.95936933	         89.99827303	          0.00000000	          0.00000000	         13.25081262	        -17.63388683	         74.53326868	         21.78784642	         89.99827303	          0.00000000	          0.00000000	
          0.99000000	          8.15830158	         -2.83973145	          1.33711654	         -1.70542674	          0.98815851	          0.17048365	        -21.53917853	          7.50429190	         -7.44737924	          6.29863084	         -0.00000000	          0.00000000	          0.00000000	          0.04199999	          0.00000000	         -0.00000000	          0.00005428	         96.25300467	          0.00000000	          0.03999883	          0.00000000	          8.19619539	         -8.04421402	          0.00000000	         20.25924370	         -3.47590660	         -1.01485094	        -14.65782844	          0.00000189	          0.00000000	         -0.00000000	          0.04190696	          0.00000000	         -0.00000000	          0.00005428	         75.29654540	          0.00000000	         -0.00000000	          0.00000000	          8.67156213	         -4.51715490	          0.00000000	        -29.99205333	          4.20231693	          3.87894191	         21.50709909	        -29.44218398	         86.78721226	         29.36033409	         89.99827303	          0.00000000	          0.00000000	         12.89922851	        -17.45875472	         75.18939781	         21.42064843	         89.99827303	          0.00000000	          0.00000000	
          0.99830000	          8.11607943	         -2.89486431	          1.51643922	         -1.69449514	          0.98620325	          0.16959889	        -22.23299529	          7.59213036	         -7.81731163	          6.36809955	         -0.00000000	          0.00000000	          0.00000000	          0.04199999	          0.00000000	         -0.00000000	          0.00005428	         96.32247339	          0.00000000	          0.03999883	          0.00000000	          8.48053346	         -7.97969654	          0.00000000	         19.87025688	         -3.38862402	         -0.84628726	        -11.31229256	          0.00000189	          0.00000000	         -0.00000000	          0.04190696	          0.00000000	         -0.00000000	          0.00005428	         78.64208127	          0.00000000	         -0.00000000	          0.00000000	          8.79801690	         -3.53634634	          0.00000000	        -29.91973011	          4.35203448	          3.57067504	         21.69141802	        -29.49949830	         86.78306359	         29.47586544	         89.99827303	          0.00000000	          0.00000000	         12.45721394	        -17.41422098	         75.54443955	         21.26171449	         89.99827303	          0.00000000	          0.00000000	
